:SAMPLES-PER-SECOND 30
:FULLY-SPECIFIED
:DEGREES
291
root  -3.62906 38.2192 56.2346 -3.79078 -3.11759 -7.03887
RightUpLeg  -14.2631 1.44654 13.6787
RightLeg  24.6552 -11.1287 -7.88419
RightFoot  -8.53325 0.219124 -4.81219
RightToes  5.82077e-011 -3.18055e-015 -2.98177e-016
Spine  1.53757 -0.60237 7.93396
Spine1  13.4535 -1.57364 10.3842
HEad  -11.3698 3.5159 -1.31057
LeftShoulder1  -3.88251e-019 9.70628e-020 -3.87848e-018
LeftArm  -34.7061 44.1365 -79.1018
LeftForeArm  -6.05497 -1.46357 -2.8963
LeftHand  -0.253365 1.4502 8.38907
RightShoulder  8.36627 10.9699 38.6787
RightArm  5.782 -39.0548 18.5156
RightForeArm  -2.42709 14.1996 -3.79163
RightHand  -0.531024 -1.68774 -16.0678
LeftUpLeg  -17.1793 2.43791 4.78831
LeftLeg  66.6986 -6.00858 21.8979
LeftFoot  -6.44688 0.243298 -4.57887
LeftToes  1.39127e-010 -3.60802e-011 -7.31315e-011
292
root  -3.70077 38.271 57.3931 -4.17006 -5.00533 -6.67927
RightUpLeg  -12.1293 1.10942 13.7842
RightLeg  25.2954 -9.12086 -8.03161
RightFoot  -10.4857 0.136616 -4.48638
RightToes  5.82077e-011 -3.18055e-015 -2.98177e-016
Spine  1.51889 0.154432 9.33592
Spine1  13.5077 -0.305522 8.70367
HEad  -11.3506 3.69061 -1.55487
LeftShoulder1  -3.88251e-019 9.70628e-020 -3.87848e-018
LeftArm  -36.8245 48.5599 -79.4562
LeftForeArm  -2.98151 -0.192029 -1.71595
LeftHand  -0.176086 2.93384 9.61291
RightShoulder  8.12902 10.8775 37.735
RightArm  6.71614 -32.9479 25.1656
RightForeArm  -4.31439 16.408 -5.17923
RightHand  -0.593723 -1.32168 -16.3809
LeftUpLeg  -20.4664 3.62313 4.03578
LeftLeg  66.7357 -5.31585 23.9784
LeftFoot  -5.96505 0.114551 -2.09136
LeftToes  1.39127e-010 -3.60802e-011 -7.31315e-011
293
root  -3.77286 38.3609 58.5564 -4.75263 -6.71295 -6.05846
RightUpLeg  -9.55316 0.591119 13.3523
RightLeg  25.3608 -6.94136 -7.69186
RightFoot  -12.1596 0.0750569 -4.14926
RightToes  5.82077e-011 -3.18055e-015 -2.98177e-016
Spine  1.71938 0.786306 10.2853
Spine1  13.1021 0.794517 6.99799
HEad  -10.9909 4.0286 -1.54111
LeftShoulder1  -3.88251e-019 9.70628e-020 -3.87848e-018
LeftArm  -36.8565 54.2795 -79.4356
LeftForeArm  -0.725326 -0.331105 -1.71837
LeftHand  -0.148118 3.38958 10.2555
RightShoulder  7.76228 10.7325 36.257
RightArm  9.91312 -27.6697 30.9719
RightForeArm  -8.27737 18.9484 -7.73742
RightHand  -0.667351 -0.86498 -16.6
LeftUpLeg  -22.8303 4.23953 3.14208
LeftLeg  64.2583 -4.25184 23.628
LeftFoot  -5.37717 0.127172 -2.0994
LeftToes  1.39127e-010 -3.60802e-011 -7.31315e-011
294
root  -3.83055 38.464 59.6954 -5.2515 -8.29161 -5.46071
RightUpLeg  -7.02699 -0.0110077 12.7226
RightLeg  25.2309 -4.74701 -7.18318
RightFoot  -13.9306 0.0213508 -3.44003
RightToes  5.82077e-011 -3.18055e-015 -2.98177e-016
Spine  1.74446 1.54108 11.5238
Spine1  12.7362 2.0523 4.75695
HEad  -10.7382 4.00797 -1.30564
LeftShoulder1  -3.88251e-019 9.70628e-020 -3.87848e-018
LeftArm  -34.9714 59.7283 -78.2311
LeftForeArm  1.6915 -0.491959 -2.49482
LeftHand  -0.188367 2.53297 8.78832
RightShoulder  7.56827 10.6438 35.4841
RightArm  13.9946 -22.6183 34.6871
RightForeArm  -13.68 21.7087 -10.728
RightHand  -0.855778 0.135956 -17.5206
LeftUpLeg  -24.2674 4.52365 2.40831
LeftLeg  59.0902 -2.81706 21.3169
LeftFoot  -5.68556 0.15652 -2.654
LeftToes  1.39127e-010 -3.60802e-011 -7.31315e-011
295
root  -3.87366 38.5668 60.8182 -5.31086 -9.74148 -4.83213
RightUpLeg  -4.91632 -0.412726 11.9647
RightLeg  24.8247 -3.03807 -6.81781
RightFoot  -15.4319 -0.00730593 -2.82095
RightToes  5.82077e-011 -3.18055e-015 -2.98177e-016
Spine  1.47946 2.49506 12.5325
Spine1  12.0526 3.33616 2.57622
HEad  -10.548 3.60284 -1.10638
LeftShoulder1  -3.88251e-019 9.70628e-020 -3.87848e-018
LeftArm  -31.9663 64.53 -75.8239
LeftForeArm  4.65819 -0.651275 -3.30019
LeftHand  -0.233589 0.962205 6.71276
RightShoulder  7.47579 10.5768 35.1651
RightArm  15.4753 -17.8177 36.6656
RightForeArm  -16.261 24.2543 -12.3869
RightHand  -1.08878 1.22254 -18.7147
LeftUpLeg  -24.9051 4.71073 1.64468
LeftLeg  51.0533 -0.872813 18.2242
LeftFoot  -6.45928 0.124757 -2.44537
LeftToes  1.39127e-010 -3.60802e-011 -7.31315e-011
296
root  -3.92473 38.7054 61.9299 -5.21157 -10.8456 -3.96607
RightUpLeg  -2.7729 -0.650934 10.8475
RightLeg  23.7127 -1.84857 -6.35595
RightFoot  -16.3751 -0.0190451 -2.54319
RightToes  5.82077e-011 -3.18055e-015 -2.98177e-016
Spine  1.12392 3.45451 12.5163
Spine1  11.0417 4.35026 0.969254
HEad  -10.1689 2.99152 -0.976371
LeftShoulder1  -3.88251e-019 9.70628e-020 -3.87848e-018
LeftArm  -28.5981 68.8108 -72.8029
LeftForeArm  7.55923 -0.926788 -3.91189
LeftHand  -0.277935 -0.343879 6.09965
RightShoulder  7.28065 10.4484 34.4549
RightArm  16.0007 -13.7804 38.101
RightForeArm  -17.4412 26.1214 -13.2323
RightHand  -1.2311 1.72156 -19.6893
LeftUpLeg  -24.3783 4.56153 0.583145
LeftLeg  40.2884 1.81001 15.0517
LeftFoot  -7.03691 0.10005 -2.30397
LeftToes  1.39127e-010 -3.60802e-011 -7.31315e-011
297
root  -3.97983 38.8734 63.004 -5.55546 -11.5515 -2.94646
RightUpLeg  -0.0837262 -1.23335 9.32878
RightLeg  22.1742 -0.49947 -5.59195
RightFoot  -17.1328 -0.0161881 -2.0615
RightToes  5.82077e-011 -3.18055e-015 -2.98177e-016
Spine  1.00221 4.20608 11.8136
Spine1  10.3785 5.14911 -0.397148
HEad  -9.59583 2.29923 -0.746531
LeftShoulder1  -3.88251e-019 9.70628e-020 -3.87848e-018
LeftArm  -25.094 72.2138 -69.2942
LeftForeArm  9.83918 -1.52346 -4.20756
LeftHand  -0.348005 -1.01098 6.85498
RightShoulder  7.00606 10.2731 33.4235
RightArm  16.7222 -10.6496 39.1539
RightForeArm  -18.6202 27.6286 -13.9729
RightHand  -1.29996 1.81697 -20.4964
LeftUpLeg  -22.2659 4.00192 -0.539673
LeftLeg  27.8661 4.61671 11.4133
LeftFoot  -5.75415 0.263134 -4.15453
LeftToes  1.39127e-010 -3.60802e-011 -7.31315e-011
298
root  -4.00865 38.9994 64.03 -6.44131 -12.1099 -1.97075
RightUpLeg  2.94007 -2.52786 7.56972
RightLeg  20.9636 1.48059 -4.86625
RightFoot  -18.0105 0.00274699 -1.2918
RightToes  5.82077e-011 -3.18055e-015 -2.98177e-016
Spine  1.32303 4.7338 11.1611
Spine1  10.2715 5.95665 -2.01426
HEad  -8.89006 1.70798 -0.379149
LeftShoulder1  -3.88251e-019 9.70628e-020 -3.87848e-018
LeftArm  -21.7375 74.4707 -65.2533
LeftForeArm  11.0158 -1.35868 -4.16103
LeftHand  -0.382678 -1.14813 7.37199
RightShoulder  6.80093 10.1326 32.6555
RightArm  17.477 -8.4233 39.4354
RightForeArm  -19.495 29.1735 -14.7741
RightHand  -1.3857 2.10824 -21.0057
LeftUpLeg  -19.1425 3.69265 -1.52979
LeftLeg  16.6399 6.44542 7.67698
LeftFoot  -0.855881 0.734057 -6.84069
LeftToes  1.39127e-010 -3.60802e-011 -7.31315e-011
299
root  -3.9948 39.0381 65.0332 -7.39354 -12.6615 -0.980432
RightUpLeg  5.59976 -4.45875 5.59351
RightLeg  20.3856 3.88841 -4.62443
RightFoot  -18.9354 0.0185224 -0.821959
RightToes  5.82077e-011 -3.18055e-015 -2.98177e-016
Spine  1.87387 5.11151 10.3792
Spine1  10.2846 6.71522 -3.66939
HEad  -8.03971 1.45648 -0.100617
LeftShoulder1  -3.88251e-019 9.70628e-020 -3.87848e-018
LeftArm  -19.3162 76.0015 -61.3559
LeftForeArm  10.5536 -0.833882 -3.63373
LeftHand  -0.340706 -0.815248 6.91747
RightShoulder  6.68853 10.0425 32.256
RightArm  17.9579 -7.25147 39.0396
RightForeArm  -19.1177 30.6843 -15.6465
RightHand  -1.47068 2.68056 -20.748
LeftUpLeg  -16.6251 3.43731 -2.48954
LeftLeg  10.472 7.58049 5.19575
LeftFoot  5.60148 0.997136 -6.10016
LeftToes  1.39127e-010 -3.60802e-011 -7.31315e-011
300
root  -3.93323 38.9811 66.0653 -8.05194 -12.9374 0.118506
RightUpLeg  7.16613 -6.53125 3.31684
RightLeg  21.2323 6.15405 -4.87215
RightFoot  -20.0968 0.0639335 -0.0543805
RightToes  5.82077e-011 -3.18055e-015 -2.98177e-016
Spine  2.06333 5.29721 9.03674
Spine1  10.3415 7.10567 -4.67333
HEad  -7.29107 1.62317 -0.0895227
LeftShoulder1  -3.88251e-019 9.70628e-020 -3.87848e-018
LeftArm  -18.4665 77.1072 -58.7428
LeftForeArm  8.20401 -0.605486 -2.87569
LeftHand  -0.279089 -0.129616 6.40801
RightShoulder  6.66488 10.0017 32.2187
RightArm  18.3733 -6.93764 38.172
RightForeArm  -17.4221 32.13 -16.579
RightHand  -1.49921 3.2455 -19.8065
LeftUpLeg  -15.6693 2.03893 -3.6445
LeftLeg  10.5227 8.69094 4.74929
LeftFoot  8.95248 0.210724 -0.881702
LeftToes  1.39127e-010 -3.60802e-011 -7.31315e-011
301
root  -3.8201 38.8441 67.1449 -8.54314 -12.5477 1.29568
RightUpLeg  7.06402 -8.11966 0.662582
RightLeg  25.3195 7.67904 -5.25878
RightFoot  -21.1784 0.242846 2.49301
RightToes  5.82077e-011 -3.18055e-015 -2.98177e-016
Spine  1.65651 5.15775 7.3769
Spine1  10.7913 6.98551 -4.87004
HEad  -7.15229 1.99529 -0.138692
LeftShoulder1  -3.88251e-019 9.70628e-020 -3.87848e-018
LeftArm  -19.3269 77.2514 -58.2778
LeftForeArm  4.69435 -0.48545 -2.36543
LeftHand  -0.260766 0.521702 6.80355
RightShoulder  6.82011 10.0773 32.8748
RightArm  19.0158 -7.03177 36.6849
RightForeArm  -15.5236 33.559 -17.5479
RightHand  -1.50357 3.64003 -19.0259
LeftUpLeg  -15.5468 1.74268 -6.02759
LeftLeg  13.5332 7.7722 6.29348
LeftFoot  7.77673 -0.850361 4.77889
LeftToes  1.39127e-010 -3.60802e-011 -7.31315e-011
302
root  -3.6756 38.7008 68.1827 -9.08869 -11.5284 2.59194
RightUpLeg  5.05911 -9.85104 -2.368
RightLeg  33.0523 8.77584 -6.01116
RightFoot  -19.9313 0.410984 6.12523
RightToes  5.82077e-011 -3.18055e-015 -2.98177e-016
Spine  1.29344 4.76348 5.85626
Spine1  11.4614 6.67527 -5.03403
HEad  -7.73777 2.14925 0.114674
LeftShoulder1  -3.88251e-019 9.70628e-020 -3.87848e-018
LeftArm  -20.9977 75.8512 -59.2956
LeftForeArm  1.47862 -0.4107 -2.19771
LeftHand  -0.273717 0.909998 7.78736
RightShoulder  7.13357 10.266 34.0997
RightArm  19.1909 -7.88712 34.6422
RightForeArm  -14.2662 34.7387 -18.3619
RightHand  -1.52798 3.79285 -19.0194
LeftUpLeg  -15.3572 1.47694 -8.58029
LeftLeg  16.7422 6.99271 7.92683
LeftFoot  4.79926 -1.11097 7.0896
LeftToes  1.39127e-010 -3.60802e-011 -7.31315e-011
